<svg width="230" height="66" viewBox="0 0 230 66" fill="none" xmlns="http://www.w3.org/2000/svg">
<path fill-rule="evenodd" clip-rule="evenodd" d="M72.0126 9.2816V7.20316L66.267 9.33873H66.2561V11.4716H66.267L72.0126 13.6072V11.526L69.0663 10.3997L72.0126 9.27888V9.2816Z" fill="#F7DD43"/>
<path fill-rule="evenodd" clip-rule="evenodd" d="M105.292 13.5037V11.4253L108.236 10.3072L105.292 9.18905V7.1106L111.03 9.24618H111.043V11.3817H111.03L105.292 13.5064V13.5037ZM102.827 4.16977L99.4541 15H101.456L104.83 4.16977H102.827Z" fill="#F7DD43"/>
<path fill-rule="evenodd" clip-rule="evenodd" d="M80.4543 6.91747C81.0256 7.54317 81.3249 8.3702 81.2895 9.21627V13.8302H79.2873V9.64066C79.3117 9.17274 79.1621 8.7157 78.8683 8.35116C78.5908 8.02742 78.18 7.84787 77.7529 7.86691C76.4988 7.86691 75.8703 8.73746 75.8703 10.4758V13.8302H73.8681V6.25639H75.8703V6.93923C76.5069 6.32168 77.3693 5.99251 78.2562 6.03059C79.0832 5.99523 79.883 6.31896 80.4543 6.91747Z" fill="#F7DD43"/>
<path fill-rule="evenodd" clip-rule="evenodd" d="M83.8413 3V13.8302H85.8436V3H83.8413Z" fill="#F7DD43"/>
<path fill-rule="evenodd" clip-rule="evenodd" d="M97.1661 13.8302H95.4957L93.858 9.36862L92.2039 13.8302H90.5336L87.726 6.2428H89.8671L91.4449 10.7806L93.0718 6.2428H94.6361L96.2629 10.7942L97.8408 6.2428H99.9818L97.1715 13.8302H97.1661Z" fill="#F7DD43"/>
<path d="M120.58 17.9981C118.653 17.9981 116.629 17.6331 115.043 16.754V1.24411C116.605 0.389878 118.628 2.85548e-05 120.58 2.85548e-05C122.531 2.85548e-05 124.507 0.365035 126.066 1.24411V7.19505H122.139V3.14558C121.676 2.95066 121.115 2.87804 120.555 2.87804C119.995 2.87804 119.481 2.95066 118.993 3.14558V14.8525C119.456 15.0475 119.993 15.1201 120.555 15.1201C121.117 15.1201 121.652 15.0475 122.139 14.8525V10.805H126.066V16.7559C124.53 17.6101 122.506 17.9752 120.58 18V17.9981Z" fill="#F7DD43"/>
<path d="M133.431 17.9981C131.358 17.9981 129.359 17.5585 127.773 16.6565V1.3167C129.334 0.439536 131.335 0 133.431 0C135.528 0 137.479 0.414693 139.04 1.3167V16.6565C137.504 17.5585 135.48 17.9732 133.431 17.9981ZM135.115 3.19524C134.652 3.00031 134.091 2.90285 133.408 2.90285C132.726 2.90285 132.189 3.00031 131.725 3.19524V14.7799C132.187 14.9997 132.749 15.0971 133.408 15.0971C134.068 15.0971 134.628 14.9997 135.115 14.7799V3.19524Z" fill="#F7DD43"/>
<path d="M145.893 11.4127H144.844V17.7783H140.869V0.219779H145.893C148.284 0.219779 150.088 0.707092 151.502 1.70656V9.92589C150.113 10.9024 148.282 11.4127 145.893 11.4127ZM147.552 3.24303C147.187 2.97548 146.698 2.85318 145.868 2.85318H144.794V8.77927H145.868C146.673 8.77927 147.16 8.65697 147.552 8.41427V3.24303Z" fill="#F7DD43"/>
<path d="M159.817 17.7783V11.4127H156.891V17.7783H152.941V1.29185C154.38 0.437625 156.404 0 158.355 0C160.306 0 162.305 0.439537 163.744 1.29185V17.7783H159.817ZM159.817 3.04809C159.402 2.85316 158.89 2.7557 158.353 2.7557C157.816 2.7557 157.304 2.85316 156.889 3.04809V8.63211H159.815V3.04809H159.817Z" fill="#F7DD43"/>
<path d="M38.2129 47.9248H42.5928C42.5049 49.3604 42.1094 50.6348 41.4062 51.748C40.7129 52.8613 39.7412 53.7305 38.4912 54.3555C37.251 54.9805 35.7568 55.293 34.0088 55.293C32.6416 55.293 31.416 55.0586 30.332 54.5898C29.248 54.1113 28.3203 53.4277 27.5488 52.5391C26.7871 51.6504 26.2061 50.5762 25.8057 49.3164C25.4053 48.0566 25.2051 46.6455 25.2051 45.083V43.6035C25.2051 42.041 25.4102 40.6299 25.8203 39.3701C26.2402 38.1006 26.8359 37.0215 27.6074 36.1328C28.3887 35.2441 29.3213 34.5605 30.4053 34.082C31.4893 33.6035 32.7002 33.3643 34.0381 33.3643C35.8154 33.3643 37.3145 33.6865 38.5352 34.3311C39.7656 34.9756 40.7178 35.8643 41.3916 36.9971C42.0752 38.1299 42.4854 39.4189 42.6221 40.8643H38.2275C38.1787 40.0049 38.0078 39.2773 37.7148 38.6816C37.4219 38.0762 36.9775 37.6221 36.3818 37.3193C35.7959 37.0068 35.0146 36.8506 34.0381 36.8506C33.3057 36.8506 32.666 36.9873 32.1191 37.2607C31.5723 37.5342 31.1133 37.9492 30.7422 38.5059C30.3711 39.0625 30.0928 39.7656 29.9072 40.6152C29.7314 41.4551 29.6436 42.4414 29.6436 43.5742V45.083C29.6436 46.1865 29.7266 47.1582 29.8926 47.998C30.0586 48.8281 30.3125 49.5312 30.6543 50.1074C31.0059 50.6738 31.4551 51.1035 32.002 51.3965C32.5586 51.6797 33.2275 51.8213 34.0088 51.8213C34.9268 51.8213 35.6836 51.6748 36.2793 51.3818C36.875 51.0889 37.3291 50.6543 37.6416 50.0781C37.9639 49.502 38.1543 48.7842 38.2129 47.9248ZM54.1504 37.3193L48.3496 55H43.6768L51.6016 33.6719H54.5752L54.1504 37.3193ZM58.9697 55L53.1543 37.3193L52.6855 33.6719H55.6885L63.6572 55H58.9697ZM58.7061 47.0605V50.5029H47.4414V47.0605H58.7061ZM79.3457 51.5723V55H68.6084V51.5723H79.3457ZM70.0293 33.6719V55H65.6348V33.6719H70.0293ZM96.1768 51.5723V55H84.8242V51.5723H96.1768ZM86.2598 33.6719V55H81.8652V33.6719H86.2598ZM94.6973 42.3584V45.6982H84.8242V42.3584H94.6973ZM96.1621 33.6719V37.1143H84.8242V33.6719H96.1621ZM116.099 33.6719V55H111.704L103.135 40.7031V55H98.7402V33.6719H103.135L111.719 47.9834V33.6719H116.099ZM126.47 55H121.826L121.855 51.5723H126.47C127.622 51.5723 128.594 51.3135 129.385 50.7959C130.176 50.2686 130.771 49.502 131.172 48.4961C131.582 47.4902 131.787 46.2744 131.787 44.8486V43.8086C131.787 42.7148 131.67 41.7529 131.436 40.9229C131.211 40.0928 130.874 39.3945 130.425 38.8281C129.976 38.2617 129.424 37.8369 128.77 37.5537C128.115 37.2607 127.363 37.1143 126.514 37.1143H121.738V33.6719H126.514C127.939 33.6719 129.243 33.916 130.425 34.4043C131.616 34.8828 132.646 35.5713 133.516 36.4697C134.385 37.3682 135.054 38.4424 135.522 39.6924C136.001 40.9326 136.24 42.3145 136.24 43.8379V44.8486C136.24 46.3623 136.001 47.7441 135.522 48.9941C135.054 50.2441 134.385 51.3184 133.516 52.2168C132.656 53.1055 131.626 53.7939 130.425 54.2822C129.233 54.7607 127.915 55 126.47 55ZM124.316 33.6719V55H119.922V33.6719H124.316ZM147.783 37.3193L141.982 55H137.31L145.234 33.6719H148.208L147.783 37.3193ZM152.603 55L146.787 37.3193L146.318 33.6719H149.321L157.29 55H152.603ZM152.339 47.0605V50.5029H141.074V47.0605H152.339ZM145.308 32.4707L148.179 27.959H152.764L148.735 32.4707H145.308ZM159.268 33.6719H167.222C168.853 33.6719 170.254 33.916 171.426 34.4043C172.607 34.8926 173.516 35.6152 174.15 36.5723C174.785 37.5293 175.103 38.7061 175.103 40.1025C175.103 41.2451 174.907 42.2266 174.517 43.0469C174.136 43.8574 173.594 44.5361 172.891 45.083C172.197 45.6201 171.382 46.0498 170.444 46.3721L169.053 47.1045H162.139L162.109 43.6768H167.251C168.022 43.6768 168.662 43.54 169.17 43.2666C169.678 42.9932 170.059 42.6123 170.312 42.124C170.576 41.6357 170.708 41.0693 170.708 40.4248C170.708 39.7412 170.581 39.1504 170.327 38.6523C170.073 38.1543 169.688 37.7734 169.17 37.5098C168.652 37.2461 168.003 37.1143 167.222 37.1143H163.662V55H159.268V33.6719ZM171.191 55L166.328 45.4932L170.972 45.4639L175.894 54.7949V55H171.191ZM183.159 33.6719V55H178.779V33.6719H183.159ZM204.795 43.8379V44.8486C204.795 46.4697 204.575 47.9248 204.136 49.2139C203.696 50.5029 203.076 51.6016 202.275 52.5098C201.475 53.4082 200.518 54.0967 199.404 54.5752C198.301 55.0537 197.075 55.293 195.728 55.293C194.39 55.293 193.164 55.0537 192.051 54.5752C190.947 54.0967 189.99 53.4082 189.18 52.5098C188.369 51.6016 187.739 50.5029 187.29 49.2139C186.851 47.9248 186.631 46.4697 186.631 44.8486V43.8379C186.631 42.207 186.851 40.752 187.29 39.4727C187.729 38.1836 188.35 37.085 189.15 36.1768C189.961 35.2686 190.918 34.5752 192.021 34.0967C193.135 33.6182 194.36 33.3789 195.698 33.3789C197.046 33.3789 198.271 33.6182 199.375 34.0967C200.488 34.5752 201.445 35.2686 202.246 36.1768C203.057 37.085 203.682 38.1836 204.121 39.4727C204.57 40.752 204.795 42.207 204.795 43.8379ZM200.356 44.8486V43.8086C200.356 42.6758 200.254 41.6797 200.049 40.8203C199.844 39.9609 199.541 39.2383 199.141 38.6523C198.74 38.0664 198.252 37.627 197.676 37.334C197.1 37.0312 196.44 36.8799 195.698 36.8799C194.956 36.8799 194.297 37.0312 193.721 37.334C193.154 37.627 192.671 38.0664 192.271 38.6523C191.88 39.2383 191.582 39.9609 191.377 40.8203C191.172 41.6797 191.069 42.6758 191.069 43.8086V44.8486C191.069 45.9717 191.172 46.9678 191.377 47.8369C191.582 48.6963 191.885 49.4238 192.285 50.0195C192.686 50.6055 193.174 51.0498 193.75 51.3525C194.326 51.6553 194.985 51.8066 195.728 51.8066C196.47 51.8066 197.129 51.6553 197.705 51.3525C198.281 51.0498 198.765 50.6055 199.155 50.0195C199.546 49.4238 199.844 48.6963 200.049 47.8369C200.254 46.9678 200.356 45.9717 200.356 44.8486Z" fill="url(#paint0_linear_122_239)"/>
<defs>
<linearGradient id="paint0_linear_122_239" x1="115" y1="26" x2="115" y2="64" gradientUnits="userSpaceOnUse">
<stop stop-color="white"/>
<stop offset="1" stop-color="#D9D9D9" stop-opacity="0.8"/>
</linearGradient>
</defs>
</svg>
